<mxfile host="app.diagrams.net" modified="2024-02-29T21:43:43.504Z" agent="Mozilla/5.0 (Macintosh; Intel Mac OS X 10_15_7) AppleWebKit/537.36 (KHTML, like Gecko) Chrome/122.0.0.0 Safari/537.36" etag="QqZDj8V3tuxFQkwECt-9" version="24.0.0" type="github">
  <diagram name="Page-1" id="NwY0y6Fche1ndI_EC3ho">
    <mxGraphModel dx="431" dy="690" grid="0" gridSize="10" guides="1" tooltips="1" connect="1" arrows="1" fold="1" page="0" pageScale="1" pageWidth="850" pageHeight="1100" math="0" shadow="0">
      <root>
        <mxCell id="0" />
        <mxCell id="1" parent="0" />
        <mxCell id="q0btAB72M8kXTMvTM_zl-1" value="" style="image;aspect=fixed;html=1;points=[];align=center;fontSize=12;image=img/lib/azure2/containers/Container_Registries.svg;" vertex="1" parent="1">
          <mxGeometry x="186" y="13.5" width="68" height="61" as="geometry" />
        </mxCell>
        <mxCell id="q0btAB72M8kXTMvTM_zl-2" value="" style="image;aspect=fixed;html=1;points=[];align=center;fontSize=12;image=img/lib/azure2/general/Code.svg;" vertex="1" parent="1">
          <mxGeometry x="132" y="163" width="64" height="52" as="geometry" />
        </mxCell>
        <mxCell id="q0btAB72M8kXTMvTM_zl-3" value="" style="verticalLabelPosition=bottom;html=1;verticalAlign=top;align=center;strokeColor=none;fillColor=#00BEF2;shape=mxgraph.azure.github_code;pointerEvents=1;" vertex="1" parent="1">
          <mxGeometry x="26" y="19" width="50" height="50" as="geometry" />
        </mxCell>
        <mxCell id="q0btAB72M8kXTMvTM_zl-4" style="edgeStyle=none;curved=1;rounded=0;orthogonalLoop=1;jettySize=auto;html=1;fontSize=12;startSize=8;endSize=8;" edge="1" parent="1" source="q0btAB72M8kXTMvTM_zl-3">
          <mxGeometry relative="1" as="geometry">
            <mxPoint x="171" y="44" as="targetPoint" />
          </mxGeometry>
        </mxCell>
        <mxCell id="q0btAB72M8kXTMvTM_zl-6" value="Azure Container Registry" style="text;strokeColor=none;fillColor=none;html=1;align=center;verticalAlign=middle;whiteSpace=wrap;rounded=0;fontSize=16;" vertex="1" parent="1">
          <mxGeometry x="200" y="98" width="60" height="30" as="geometry" />
        </mxCell>
      </root>
    </mxGraphModel>
  </diagram>
</mxfile>
